<?xml version="1.0" encoding="utf-8" standalone="no"?>
<!DOCTYPE svg PUBLIC "-//W3C//DTD SVG 1.1//EN"
  "http://www.w3.org/Graphics/SVG/1.1/DTD/svg11.dtd">
<svg xmlns:xlink="http://www.w3.org/1999/xlink" width="478.004412pt" height="264.871353pt" viewBox="0 0 478.004412 264.871353" xmlns="http://www.w3.org/2000/svg" version="1.1">
 <metadata>
  <rdf:RDF xmlns:dc="http://purl.org/dc/elements/1.1/" xmlns:cc="http://creativecommons.org/ns#" xmlns:rdf="http://www.w3.org/1999/02/22-rdf-syntax-ns#">
   <cc:Work>
    <dc:type rdf:resource="http://purl.org/dc/dcmitype/StillImage"/>
    <dc:date>2023-10-20T10:53:07.995893</dc:date>
    <dc:format>image/svg+xml</dc:format>
    <dc:creator>
     <cc:Agent>
      <dc:title>Matplotlib v3.6.3, https://matplotlib.org/</dc:title>
     </cc:Agent>
    </dc:creator>
   </cc:Work>
  </rdf:RDF>
 </metadata>
 <defs>
  <style type="text/css">*{stroke-linejoin: round; stroke-linecap: butt}</style>
 </defs>
 <g id="figure_1">
  <g id="patch_1">
   <path d="M 0 264.871353 
L 478.004412 264.871353 
L 478.004412 0 
L 0 0 
z
" style="fill: #ffffff"/>
  </g>
  <g id="axes_1">
   <g id="patch_2">
    <path d="M 40.892719 228.96 
L 431.492719 228.96 
L 431.492719 7.2 
L 40.892719 7.2 
z
" style="fill: #ffffff"/>
   </g>
   <g id="matplotlib.axis_1">
    <g id="xtick_1">
     <g id="line2d_1">
      <defs>
       <path id="mb839704b66" d="M 0 0 
L 0 3.5 
" style="stroke: #000000; stroke-width: 0.8"/>
      </defs>
      <g>
       <use xlink:href="#mb839704b66" x="58.647265" y="228.96" style="stroke: #000000; stroke-width: 0.8"/>
      </g>
     </g>
     <g id="text_1">
      <!-- $\mathdefault{−8}$ -->
      <g transform="translate(52.282225 242.878498) scale(0.1 -0.1)">
       <defs>
        <path id="CMSY10-0" d="M 4218 1472 
C 4326 1472 4442 1472 4442 1600 
C 4442 1728 4326 1728 4218 1728 
L 755 1728 
C 646 1728 531 1728 531 1600 
C 531 1472 646 1472 755 1472 
L 4218 1472 
z
" transform="scale(0.015625)"/>
        <path id="CMR17-38" d="M 1741 2264 
C 2144 2467 2554 2773 2554 3263 
C 2554 3841 1990 4179 1472 4179 
C 890 4179 378 3759 378 3180 
C 378 3021 416 2747 666 2505 
C 730 2442 998 2251 1171 2130 
C 883 1983 211 1634 211 934 
C 211 279 838 -128 1459 -128 
C 2144 -128 2720 362 2720 1010 
C 2720 1590 2330 1857 2074 2029 
L 1741 2264 
z
M 902 2822 
C 851 2854 595 3051 595 3351 
C 595 3739 998 4032 1459 4032 
C 1965 4032 2336 3676 2336 3262 
C 2336 2669 1670 2331 1638 2331 
C 1632 2331 1626 2331 1574 2370 
L 902 2822 
z
M 2080 1519 
C 2176 1449 2483 1240 2483 851 
C 2483 381 2010 25 1472 25 
C 890 25 448 438 448 940 
C 448 1443 838 1862 1280 2060 
L 2080 1519 
z
" transform="scale(0.015625)"/>
       </defs>
       <use xlink:href="#CMSY10-0" transform="scale(0.996264)"/>
       <use xlink:href="#CMR17-38" transform="translate(77.487468 0) scale(0.996264)"/>
      </g>
     </g>
    </g>
    <g id="xtick_2">
     <g id="line2d_2">
      <g>
       <use xlink:href="#mb839704b66" x="103.033628" y="228.96" style="stroke: #000000; stroke-width: 0.8"/>
      </g>
     </g>
     <g id="text_2">
      <!-- $\mathdefault{−6}$ -->
      <g transform="translate(96.668589 242.878498) scale(0.1 -0.1)">
       <defs>
        <path id="CMR17-36" d="M 678 2176 
C 678 3690 1395 4032 1811 4032 
C 1946 4032 2272 4009 2400 3776 
C 2298 3776 2106 3776 2106 3553 
C 2106 3381 2246 3323 2336 3323 
C 2394 3323 2566 3348 2566 3560 
C 2566 3954 2246 4179 1805 4179 
C 1043 4179 243 3390 243 1984 
C 243 253 966 -128 1478 -128 
C 2099 -128 2688 427 2688 1283 
C 2688 2081 2170 2662 1517 2662 
C 1126 2662 838 2407 678 1960 
L 678 2176 
z
M 1478 25 
C 691 25 691 1200 691 1436 
C 691 1896 909 2560 1504 2560 
C 1613 2560 1926 2560 2138 2120 
C 2253 1870 2253 1609 2253 1289 
C 2253 944 2253 690 2118 434 
C 1978 171 1773 25 1478 25 
z
" transform="scale(0.015625)"/>
       </defs>
       <use xlink:href="#CMSY10-0" transform="scale(0.996264)"/>
       <use xlink:href="#CMR17-36" transform="translate(77.487468 0) scale(0.996264)"/>
      </g>
     </g>
    </g>
    <g id="xtick_3">
     <g id="line2d_3">
      <g>
       <use xlink:href="#mb839704b66" x="147.419992" y="228.96" style="stroke: #000000; stroke-width: 0.8"/>
      </g>
     </g>
     <g id="text_3">
      <!-- $\mathdefault{−4}$ -->
      <g transform="translate(141.054952 242.878498) scale(0.1 -0.1)">
       <defs>
        <path id="CMR17-34" d="M 2150 4122 
C 2150 4256 2144 4256 2029 4256 
L 128 1254 
L 128 1088 
L 1779 1088 
L 1779 457 
C 1779 224 1766 160 1318 160 
L 1197 160 
L 1197 0 
C 1402 0 1747 0 1965 0 
C 2182 0 2528 0 2733 0 
L 2733 160 
L 2611 160 
C 2163 160 2150 224 2150 457 
L 2150 1088 
L 2803 1088 
L 2803 1254 
L 2150 1254 
L 2150 4122 
z
M 1798 3703 
L 1798 1254 
L 256 1254 
L 1798 3703 
z
" transform="scale(0.015625)"/>
       </defs>
       <use xlink:href="#CMSY10-0" transform="scale(0.996264)"/>
       <use xlink:href="#CMR17-34" transform="translate(77.487468 0) scale(0.996264)"/>
      </g>
     </g>
    </g>
    <g id="xtick_4">
     <g id="line2d_4">
      <g>
       <use xlink:href="#mb839704b66" x="191.806355" y="228.96" style="stroke: #000000; stroke-width: 0.8"/>
      </g>
     </g>
     <g id="text_4">
      <!-- $\mathdefault{−2}$ -->
      <g transform="translate(185.441316 242.878498) scale(0.1 -0.1)">
       <defs>
        <path id="CMR17-32" d="M 2669 989 
L 2554 989 
C 2490 536 2438 459 2413 420 
C 2381 369 1920 369 1830 369 
L 602 369 
C 832 619 1280 1072 1824 1597 
C 2214 1967 2669 2402 2669 3035 
C 2669 3790 2067 4224 1395 4224 
C 691 4224 262 3604 262 3030 
C 262 2780 448 2748 525 2748 
C 589 2748 781 2787 781 3010 
C 781 3207 614 3264 525 3264 
C 486 3264 448 3258 422 3245 
C 544 3790 915 4058 1306 4058 
C 1862 4058 2227 3617 2227 3035 
C 2227 2479 1901 2000 1536 1584 
L 262 146 
L 262 0 
L 2515 0 
L 2669 989 
z
" transform="scale(0.015625)"/>
       </defs>
       <use xlink:href="#CMSY10-0" transform="scale(0.996264)"/>
       <use xlink:href="#CMR17-32" transform="translate(77.487468 0) scale(0.996264)"/>
      </g>
     </g>
    </g>
    <g id="xtick_5">
     <g id="line2d_5">
      <g>
       <use xlink:href="#mb839704b66" x="236.192719" y="228.96" style="stroke: #000000; stroke-width: 0.8"/>
      </g>
     </g>
     <g id="text_5">
      <!-- $\mathdefault{0}$ -->
      <g transform="translate(233.702051 242.878498) scale(0.1 -0.1)">
       <defs>
        <path id="CMR17-30" d="M 2688 2025 
C 2688 2416 2682 3080 2413 3591 
C 2176 4039 1798 4198 1466 4198 
C 1158 4198 768 4058 525 3597 
C 269 3118 243 2524 243 2025 
C 243 1661 250 1106 448 619 
C 723 -39 1216 -128 1466 -128 
C 1760 -128 2208 -7 2470 600 
C 2662 1042 2688 1559 2688 2025 
z
M 1466 -26 
C 1056 -26 813 325 723 812 
C 653 1188 653 1738 653 2096 
C 653 2588 653 2997 736 3387 
C 858 3929 1216 4096 1466 4096 
C 1728 4096 2067 3923 2189 3400 
C 2272 3036 2278 2607 2278 2096 
C 2278 1680 2278 1169 2202 792 
C 2067 95 1690 -26 1466 -26 
z
" transform="scale(0.015625)"/>
       </defs>
       <use xlink:href="#CMR17-30" transform="scale(0.996264)"/>
      </g>
     </g>
    </g>
    <g id="xtick_6">
     <g id="line2d_6">
      <g>
       <use xlink:href="#mb839704b66" x="280.579083" y="228.96" style="stroke: #000000; stroke-width: 0.8"/>
      </g>
     </g>
     <g id="text_6">
      <!-- $\mathdefault{2}$ -->
      <g transform="translate(278.088415 242.878498) scale(0.1 -0.1)">
       <use xlink:href="#CMR17-32" transform="scale(0.996264)"/>
      </g>
     </g>
    </g>
    <g id="xtick_7">
     <g id="line2d_7">
      <g>
       <use xlink:href="#mb839704b66" x="324.965446" y="228.96" style="stroke: #000000; stroke-width: 0.8"/>
      </g>
     </g>
     <g id="text_7">
      <!-- $\mathdefault{4}$ -->
      <g transform="translate(322.474779 242.878498) scale(0.1 -0.1)">
       <use xlink:href="#CMR17-34" transform="scale(0.996264)"/>
      </g>
     </g>
    </g>
    <g id="xtick_8">
     <g id="line2d_8">
      <g>
       <use xlink:href="#mb839704b66" x="369.35181" y="228.96" style="stroke: #000000; stroke-width: 0.8"/>
      </g>
     </g>
     <g id="text_8">
      <!-- $\mathdefault{6}$ -->
      <g transform="translate(366.861142 242.878498) scale(0.1 -0.1)">
       <use xlink:href="#CMR17-36" transform="scale(0.996264)"/>
      </g>
     </g>
    </g>
    <g id="xtick_9">
     <g id="line2d_9">
      <g>
       <use xlink:href="#mb839704b66" x="413.738174" y="228.96" style="stroke: #000000; stroke-width: 0.8"/>
      </g>
     </g>
     <g id="text_9">
      <!-- $\mathdefault{8}$ -->
      <g transform="translate(411.247506 242.878498) scale(0.1 -0.1)">
       <use xlink:href="#CMR17-38" transform="scale(0.996264)"/>
      </g>
     </g>
    </g>
    <g id="text_10">
     <!-- Position $x$ -->
     <g transform="translate(214.015432 255.734175) scale(0.1 -0.1)">
      <defs>
       <path id="CMR17-50" d="M 1267 2042 
L 2291 2042 
C 3117 2042 3718 2578 3718 3184 
C 3718 3791 3130 4352 2291 4352 
L 333 4352 
L 333 4186 
C 774 4186 845 4186 845 3899 
L 845 446 
C 845 160 774 160 333 160 
L 333 0 
C 518 0 858 0 1056 0 
C 1254 0 1594 0 1779 0 
L 1779 160 
C 1338 160 1267 160 1267 446 
L 1267 2042 
z
M 1254 2176 
L 1254 3938 
C 1254 4155 1267 4186 1523 4186 
L 2170 4186 
C 2995 4186 3232 3714 3232 3184 
C 3232 2604 2950 2176 2170 2176 
L 1254 2176 
z
" transform="scale(0.015625)"/>
       <path id="CMR17-6f" d="M 2758 1356 
C 2758 2176 2163 2816 1466 2816 
C 768 2816 173 2176 173 1356 
C 173 551 768 -64 1466 -64 
C 2163 -64 2758 551 2758 1356 
z
M 1466 51 
C 1165 51 909 230 762 480 
C 602 767 582 1126 582 1408 
C 582 1677 595 2010 762 2298 
C 890 2509 1139 2714 1466 2714 
C 1754 2714 1997 2554 2150 2330 
C 2349 2029 2349 1607 2349 1408 
C 2349 1158 2336 775 2163 467 
C 1984 173 1709 51 1466 51 
z
" transform="scale(0.015625)"/>
       <path id="CMR17-73" d="M 1978 2697 
C 1978 2813 1971 2819 1933 2819 
C 1907 2819 1901 2813 1824 2717 
C 1805 2691 1747 2626 1728 2601 
C 1523 2819 1235 2819 1126 2819 
C 416 2819 160 2447 160 2076 
C 160 1498 813 1365 998 1325 
C 1402 1243 1542 1217 1677 1101 
C 1760 1025 1901 884 1901 654 
C 1901 384 1747 38 1158 38 
C 602 38 403 460 288 1021 
C 269 1110 269 1117 218 1117 
C 166 1117 160 1110 160 983 
L 160 63 
C 160 -51 166 -58 205 -58 
C 237 -58 243 -51 275 0 
C 314 57 410 211 448 276 
C 576 103 800 -64 1158 -64 
C 1792 -64 2131 283 2131 784 
C 2131 1112 1958 1285 1875 1362 
C 1683 1561 1459 1606 1190 1657 
C 838 1735 390 1825 390 2217 
C 390 2383 480 2737 1126 2737 
C 1811 2737 1850 2094 1862 1888 
C 1869 1856 1901 1849 1920 1849 
C 1978 1849 1978 1869 1978 1978 
L 1978 2697 
z
" transform="scale(0.015625)"/>
       <path id="CMR17-69" d="M 992 3909 
C 992 4049 877 4170 730 4170 
C 589 4170 467 4056 467 3909 
C 467 3769 582 3648 730 3648 
C 870 3648 992 3763 992 3909 
z
M 243 2706 
L 243 2541 
C 602 2541 653 2502 653 2197 
L 653 427 
C 653 184 627 153 218 153 
L 218 -13 
C 371 0 646 0 806 0 
C 960 0 1222 0 1370 -13 
L 1370 153 
C 992 153 979 191 979 420 
L 979 2776 
L 243 2706 
z
" transform="scale(0.015625)"/>
       <path id="CMR17-74" d="M 966 2560 
L 1862 2560 
L 1862 2725 
L 966 2725 
L 966 3904 
L 851 3904 
C 838 3245 614 2668 70 2668 
L 70 2560 
L 627 2560 
L 627 771 
C 627 650 627 -64 1370 -64 
C 1747 -64 1965 306 1965 777 
L 1965 1140 
L 1850 1140 
L 1850 783 
C 1850 344 1677 51 1408 51 
C 1222 51 966 178 966 758 
L 966 2560 
z
" transform="scale(0.015625)"/>
       <path id="CMR17-6e" d="M 2656 1933 
C 2656 2259 2592 2790 1837 2790 
C 1331 2790 1069 2400 973 2144 
L 966 2144 
L 966 2790 
L 211 2720 
L 211 2554 
C 589 2554 646 2515 646 2208 
L 646 428 
C 646 184 621 153 211 153 
L 211 -13 
C 365 0 646 0 813 0 
C 979 0 1267 0 1421 -13 
L 1421 153 
C 1011 153 986 178 986 428 
L 986 1658 
C 986 2247 1344 2688 1792 2688 
C 2266 2688 2317 2266 2317 1958 
L 2317 428 
C 2317 184 2291 153 1882 153 
L 1882 -13 
C 2035 0 2317 0 2483 0 
C 2650 0 2938 0 3091 -13 
L 3091 153 
C 2682 153 2656 178 2656 428 
L 2656 1933 
z
" transform="scale(0.015625)"/>
       <path id="CMMI12-78" d="M 3034 2606 
C 2829 2567 2752 2414 2752 2293 
C 2752 2139 2874 2088 2963 2088 
C 3155 2088 3290 2254 3290 2427 
C 3290 2695 2982 2816 2714 2816 
C 2323 2816 2106 2433 2048 2312 
C 1901 2816 1504 2816 1389 2816 
C 736 2816 390 1980 390 1839 
C 390 1814 416 1782 461 1782 
C 512 1782 525 1820 538 1846 
C 755 2555 1184 2689 1370 2689 
C 1658 2689 1715 2420 1715 2267 
C 1715 2127 1677 1980 1600 1673 
L 1382 798 
C 1286 415 1101 64 762 64 
C 730 64 570 64 435 147 
C 666 192 717 383 717 460 
C 717 588 621 664 499 664 
C 346 664 179 530 179 326 
C 179 57 480 -64 755 -64 
C 1062 -64 1280 179 1414 441 
C 1517 64 1837 -64 2074 -64 
C 2726 -64 3072 773 3072 913 
C 3072 945 3046 971 3008 971 
C 2950 971 2944 939 2925 888 
C 2752 326 2381 64 2093 64 
C 1869 64 1747 230 1747 492 
C 1747 632 1773 734 1875 1156 
L 2099 2024 
C 2195 2408 2413 2689 2707 2689 
C 2720 2689 2899 2689 3034 2606 
z
" transform="scale(0.015625)"/>
      </defs>
      <use xlink:href="#CMR17-50" transform="scale(0.996264)"/>
      <use xlink:href="#CMR17-6f" transform="translate(59.983847 0) scale(0.996264)"/>
      <use xlink:href="#CMR17-73" transform="translate(105.674324 0) scale(0.996264)"/>
      <use xlink:href="#CMR17-69" transform="translate(141.475661 0) scale(0.996264)"/>
      <use xlink:href="#CMR17-74" transform="translate(166.34672 0) scale(0.996264)"/>
      <use xlink:href="#CMR17-69" transform="translate(201.627488 0) scale(0.996264)"/>
      <use xlink:href="#CMR17-6f" transform="translate(226.498546 0) scale(0.996264)"/>
      <use xlink:href="#CMR17-6e" transform="translate(272.189023 0) scale(0.996264)"/>
      <use xlink:href="#CMMI12-78" transform="translate(353.160359 0) scale(0.996264)"/>
     </g>
    </g>
   </g>
   <g id="matplotlib.axis_2">
    <g id="ytick_1">
     <g id="line2d_10">
      <defs>
       <path id="me6de76e648" d="M 0 0 
L -3.5 0 
" style="stroke: #000000; stroke-width: 0.8"/>
      </defs>
      <g>
       <use xlink:href="#me6de76e648" x="40.892719" y="218.87714" style="stroke: #000000; stroke-width: 0.8"/>
      </g>
     </g>
     <g id="text_11">
      <!-- $\mathdefault{0.0}$ -->
      <g transform="translate(21.16264 222.336389) scale(0.1 -0.1)">
       <defs>
        <path id="CMMI12-3a" d="M 1178 307 
C 1178 492 1024 619 870 619 
C 685 619 557 466 557 313 
C 557 128 710 0 864 0 
C 1050 0 1178 153 1178 307 
z
" transform="scale(0.015625)"/>
       </defs>
       <use xlink:href="#CMR17-30" transform="scale(0.996264)"/>
       <use xlink:href="#CMMI12-3a" transform="translate(45.690477 0) scale(0.996264)"/>
       <use xlink:href="#CMR17-30" transform="translate(72.787654 0) scale(0.996264)"/>
      </g>
     </g>
    </g>
    <g id="ytick_2">
     <g id="line2d_11">
      <g>
       <use xlink:href="#me6de76e648" x="40.892719" y="173.665922" style="stroke: #000000; stroke-width: 0.8"/>
      </g>
     </g>
     <g id="text_12">
      <!-- $\mathdefault{0.2}$ -->
      <g transform="translate(21.16264 177.125171) scale(0.1 -0.1)">
       <use xlink:href="#CMR17-30" transform="scale(0.996264)"/>
       <use xlink:href="#CMMI12-3a" transform="translate(45.690477 0) scale(0.996264)"/>
       <use xlink:href="#CMR17-32" transform="translate(72.787654 0) scale(0.996264)"/>
      </g>
     </g>
    </g>
    <g id="ytick_3">
     <g id="line2d_12">
      <g>
       <use xlink:href="#me6de76e648" x="40.892719" y="128.454705" style="stroke: #000000; stroke-width: 0.8"/>
      </g>
     </g>
     <g id="text_13">
      <!-- $\mathdefault{0.4}$ -->
      <g transform="translate(21.16264 131.913954) scale(0.1 -0.1)">
       <use xlink:href="#CMR17-30" transform="scale(0.996264)"/>
       <use xlink:href="#CMMI12-3a" transform="translate(45.690477 0) scale(0.996264)"/>
       <use xlink:href="#CMR17-34" transform="translate(72.787654 0) scale(0.996264)"/>
      </g>
     </g>
    </g>
    <g id="ytick_4">
     <g id="line2d_13">
      <g>
       <use xlink:href="#me6de76e648" x="40.892719" y="83.243487" style="stroke: #000000; stroke-width: 0.8"/>
      </g>
     </g>
     <g id="text_14">
      <!-- $\mathdefault{0.6}$ -->
      <g transform="translate(21.16264 86.702736) scale(0.1 -0.1)">
       <use xlink:href="#CMR17-30" transform="scale(0.996264)"/>
       <use xlink:href="#CMMI12-3a" transform="translate(45.690477 0) scale(0.996264)"/>
       <use xlink:href="#CMR17-36" transform="translate(72.787654 0) scale(0.996264)"/>
      </g>
     </g>
    </g>
    <g id="ytick_5">
     <g id="line2d_14">
      <g>
       <use xlink:href="#me6de76e648" x="40.892719" y="38.032269" style="stroke: #000000; stroke-width: 0.8"/>
      </g>
     </g>
     <g id="text_15">
      <!-- $\mathdefault{0.8}$ -->
      <g transform="translate(21.16264 41.491519) scale(0.1 -0.1)">
       <use xlink:href="#CMR17-30" transform="scale(0.996264)"/>
       <use xlink:href="#CMMI12-3a" transform="translate(45.690477 0) scale(0.996264)"/>
       <use xlink:href="#CMR17-38" transform="translate(72.787654 0) scale(0.996264)"/>
      </g>
     </g>
    </g>
    <g id="text_16">
     <!-- Wavefunction amplitude $\psi(x)$ -->
     <g transform="translate(14.67198 183.019483) rotate(-90) scale(0.1 -0.1)">
      <defs>
       <path id="CMR17-57" d="M 5523 3764 
C 5581 3936 5677 4160 6048 4160 
L 6048 4326 
C 5939 4326 5715 4326 5600 4326 
C 5440 4326 5158 4326 5005 4332 
L 5005 4160 
C 5293 4160 5414 4000 5414 3847 
C 5414 3802 5408 3777 5382 3707 
L 4390 555 
L 3347 3873 
C 3328 3937 3322 3963 3322 3988 
C 3322 4160 3603 4160 3725 4160 
L 3725 4326 
C 3539 4326 3219 4326 3021 4326 
C 2861 4326 2573 4326 2426 4332 
L 2426 4160 
C 2720 4160 2797 4141 2861 4027 
C 2886 3969 2989 3638 2989 3619 
C 2989 3593 2976 3555 2970 3536 
L 2029 561 
L 986 3867 
C 954 3957 954 3969 954 3982 
C 954 4160 1235 4160 1363 4160 
L 1363 4326 
C 1178 4326 858 4326 659 4326 
C 493 4326 211 4326 58 4332 
L 58 4160 
C 442 4160 467 4122 531 3918 
L 1779 -20 
C 1811 -115 1811 -128 1869 -128 
C 1920 -128 1939 -115 1965 -26 
L 3053 3433 
L 4141 -26 
C 4166 -115 4186 -128 4237 -128 
C 4294 -128 4294 -115 4326 -20 
L 5523 3764 
z
" transform="scale(0.015625)"/>
       <path id="CMR17-61" d="M 2304 1653 
C 2304 2072 2304 2294 2035 2543 
C 1798 2752 1523 2816 1306 2816 
C 800 2816 435 2407 435 1971 
C 435 1728 627 1728 666 1728 
C 749 1728 896 1778 896 1954 
C 896 2112 774 2181 666 2181 
C 640 2181 608 2174 589 2168 
C 723 2592 1069 2714 1293 2714 
C 1613 2714 1965 2429 1965 1885 
L 1965 1600 
C 1587 1600 1133 1549 774 1357 
C 371 1133 256 813 256 570 
C 256 77 832 -64 1171 -64 
C 1523 -64 1850 139 1990 511 
C 2003 233 2182 -18 2464 -18 
C 2598 -18 2938 70 2938 567 
L 2938 920 
L 2822 920 
L 2822 562 
C 2822 178 2650 128 2566 128 
C 2304 128 2304 458 2304 738 
L 2304 1653 
z
M 1965 870 
C 1965 317 1568 38 1216 38 
C 896 38 646 275 646 570 
C 646 761 730 1100 1101 1305 
C 1408 1478 1760 1504 1965 1504 
L 1965 870 
z
" transform="scale(0.015625)"/>
       <path id="CMR17-76" d="M 2502 2163 
C 2560 2304 2662 2560 3034 2560 
L 3034 2726 
C 2912 2726 2752 2726 2630 2726 
C 2496 2726 2285 2726 2157 2732 
L 2157 2566 
C 2317 2553 2406 2477 2406 2311 
C 2406 2253 2406 2240 2368 2151 
L 1664 377 
L 902 2286 
C 864 2369 864 2381 864 2407 
C 864 2560 1075 2560 1171 2560 
L 1171 2732 
C 1018 2726 736 2726 576 2726 
C 403 2726 205 2726 64 2732 
L 64 2560 
C 307 2560 442 2560 518 2362 
L 1446 44 
C 1485 -51 1491 -64 1549 -64 
C 1606 -64 1613 -51 1651 44 
L 2502 2163 
z
" transform="scale(0.015625)"/>
       <path id="CMR17-65" d="M 2438 1472 
C 2464 1498 2464 1511 2464 1576 
C 2464 2238 2118 2816 1389 2816 
C 710 2816 173 2169 173 1383 
C 173 551 781 -64 1459 -64 
C 2176 -64 2458 607 2458 740 
C 2458 784 2419 784 2406 784 
C 2362 784 2355 771 2330 696 
C 2189 265 1837 51 1504 51 
C 1229 51 954 203 781 480 
C 582 803 582 1176 582 1472 
L 2438 1472 
z
M 589 1568 
C 634 2505 1126 2714 1382 2714 
C 1818 2714 2112 2297 2118 1568 
L 589 1568 
z
" transform="scale(0.015625)"/>
       <path id="CMR17-66" d="M 979 2560 
L 1709 2560 
L 1709 2725 
L 966 2725 
L 966 3494 
C 966 4022 1235 4352 1510 4352 
C 1594 4352 1690 4327 1754 4282 
C 1702 4269 1568 4225 1568 4067 
C 1568 3901 1696 3850 1786 3850 
C 1875 3850 2003 3901 2003 4067 
C 2003 4308 1773 4454 1517 4454 
C 1152 4454 653 4156 653 3481 
L 653 2725 
L 141 2725 
L 141 2560 
L 653 2560 
L 653 427 
C 653 184 627 153 218 153 
L 218 -13 
C 371 0 666 0 832 0 
C 1018 0 1344 0 1517 -13 
L 1517 153 
C 1056 153 979 153 979 439 
L 979 2560 
z
" transform="scale(0.015625)"/>
       <path id="CMR17-75" d="M 1882 2693 
L 1882 2528 
C 2259 2528 2317 2489 2317 2186 
L 2317 1032 
C 2317 500 2029 38 1555 38 
C 1030 38 986 348 986 678 
L 986 2763 
L 211 2693 
L 211 2528 
C 467 2528 640 2528 646 2274 
L 646 1058 
C 646 633 646 361 813 183 
C 896 101 1056 -64 1517 -64 
C 2061 -64 2272 377 2323 506 
L 2330 506 
L 2330 -63 
L 3091 -63 
L 3091 128 
C 2714 128 2656 166 2656 473 
L 2656 2763 
L 1882 2693 
z
" transform="scale(0.015625)"/>
       <path id="CMR17-63" d="M 2234 2240 
C 2112 2240 1933 2240 1933 2017 
C 1933 1838 2080 1787 2163 1787 
C 2208 1787 2394 1807 2394 2024 
C 2394 2467 1958 2803 1466 2803 
C 787 2803 211 2178 211 1363 
C 211 516 813 -64 1466 -64 
C 2259 -64 2458 677 2458 748 
C 2458 774 2451 793 2406 793 
C 2362 793 2355 787 2330 703 
C 2163 180 1798 51 1523 51 
C 1114 51 621 427 621 1369 
C 621 2338 1094 2688 1472 2688 
C 1722 2688 2093 2573 2234 2240 
z
" transform="scale(0.015625)"/>
       <path id="CMR17-6d" d="M 4326 1933 
C 4326 2252 4269 2790 3507 2790 
C 3072 2790 2771 2496 2656 2151 
L 2650 2151 
C 2573 2676 2195 2790 1837 2790 
C 1331 2790 1069 2400 973 2144 
L 966 2144 
L 966 2790 
L 211 2720 
L 211 2554 
C 589 2554 646 2515 646 2208 
L 646 428 
C 646 184 621 153 211 153 
L 211 -13 
C 365 0 646 0 813 0 
C 979 0 1267 0 1421 -13 
L 1421 153 
C 1011 153 986 178 986 428 
L 986 1658 
C 986 2247 1344 2688 1792 2688 
C 2266 2688 2317 2266 2317 1958 
L 2317 428 
C 2317 184 2291 153 1882 153 
L 1882 -13 
C 2035 0 2317 0 2483 0 
C 2650 0 2938 0 3091 -13 
L 3091 153 
C 2682 153 2656 178 2656 428 
L 2656 1658 
C 2656 2247 3014 2688 3462 2688 
C 3936 2688 3987 2266 3987 1958 
L 3987 428 
C 3987 184 3962 153 3552 153 
L 3552 -13 
C 3706 0 3987 0 4154 0 
C 4320 0 4608 0 4762 -13 
L 4762 153 
C 4352 153 4326 178 4326 428 
L 4326 1933 
z
" transform="scale(0.015625)"/>
       <path id="CMR17-70" d="M 1408 -1063 
C 998 -1063 973 -1037 973 -789 
L 973 402 
C 1158 134 1427 -38 1766 -38 
C 2406 -38 3053 523 3053 1388 
C 3053 2191 2496 2802 1837 2802 
C 1453 2802 1139 2592 960 2338 
L 960 2802 
L 198 2732 
L 198 2567 
C 576 2567 634 2528 634 2223 
L 634 -789 
C 634 -1031 608 -1063 198 -1063 
L 198 -1228 
C 352 -1216 634 -1216 800 -1216 
C 966 -1216 1254 -1216 1408 -1228 
L 1408 -1063 
z
M 973 2012 
C 973 2102 973 2235 1222 2471 
C 1254 2497 1472 2688 1792 2688 
C 2259 2688 2643 2108 2643 1382 
C 2643 656 2234 64 1728 64 
C 1498 64 1248 172 1056 472 
C 973 612 973 650 973 752 
L 973 2012 
z
" transform="scale(0.015625)"/>
       <path id="CMR17-6c" d="M 979 4396 
L 218 4326 
L 218 4160 
C 595 4160 653 4122 653 3817 
L 653 426 
C 653 184 627 153 218 153 
L 218 -13 
C 371 0 653 0 813 0 
C 979 0 1261 0 1414 -13 
L 1414 153 
C 1005 153 979 178 979 426 
L 979 4396 
z
" transform="scale(0.015625)"/>
       <path id="CMR17-64" d="M 1869 4326 
L 1869 4160 
C 2246 4160 2304 4122 2304 3820 
L 2304 2345 
C 2278 2377 2016 2790 1498 2790 
C 845 2790 211 2208 211 1364 
C 211 525 806 -64 1434 -64 
C 1978 -64 2259 337 2291 380 
L 2291 -63 
L 3066 -63 
L 3066 128 
C 2688 128 2630 166 2630 473 
L 2630 4396 
L 1869 4326 
z
M 2291 755 
C 2291 563 2176 390 2029 262 
C 1811 70 1594 38 1472 38 
C 1286 38 621 134 621 1356 
C 621 2612 1363 2688 1530 2688 
C 1824 2688 2061 2522 2208 2291 
C 2291 2157 2291 2138 2291 2023 
L 2291 755 
z
" transform="scale(0.015625)"/>
       <path id="CMMI12-20" d="M 3008 4294 
C 3008 4301 3034 4384 3034 4391 
C 3034 4448 2982 4448 2963 4448 
C 2906 4448 2899 4416 2874 4320 
L 1818 77 
C 1286 141 1088 410 1088 794 
C 1088 934 1088 1082 1389 1875 
C 1472 2105 1504 2188 1504 2303 
C 1504 2591 1299 2821 998 2821 
C 410 2821 173 1894 173 1843 
C 173 1817 198 1785 243 1785 
C 301 1785 307 1811 333 1900 
C 486 2453 742 2688 979 2688 
C 1037 2688 1146 2688 1146 2483 
C 1146 2457 1146 2316 1037 2035 
C 691 1126 691 985 691 838 
C 691 223 1203 -14 1779 -58 
C 1728 -253 1683 -453 1632 -647 
C 1530 -1022 1485 -1198 1485 -1223 
C 1485 -1280 1536 -1280 1555 -1280 
C 1568 -1280 1594 -1280 1606 -1254 
C 1632 -1230 1894 -176 1920 -64 
C 2157 -64 2662 -64 3238 531 
C 3450 761 3642 1056 3750 1331 
C 3814 1498 3968 2067 3968 2393 
C 3968 2777 3776 2821 3712 2821 
C 3558 2821 3418 2668 3418 2540 
C 3418 2463 3462 2418 3488 2393 
C 3546 2335 3718 2162 3718 1830 
C 3718 1600 3590 1126 3181 666 
C 2643 64 2150 64 1958 64 
L 3008 4294 
z
" transform="scale(0.015625)"/>
       <path id="CMR17-28" d="M 1958 -1561 
C 1958 -1555 1958 -1542 1939 -1523 
C 1645 -1224 858 -407 858 1581 
C 858 3569 1632 4379 1946 4697 
C 1946 4704 1958 4717 1958 4736 
C 1958 4755 1939 4768 1914 4768 
C 1843 4768 1299 4296 986 3594 
C 666 2887 576 2199 576 1588 
C 576 1128 621 351 1005 -471 
C 1312 -1135 1837 -1600 1914 -1600 
C 1946 -1600 1958 -1587 1958 -1561 
z
" transform="scale(0.015625)"/>
       <path id="CMR17-29" d="M 1683 1581 
C 1683 2040 1638 2817 1254 3639 
C 947 4303 422 4768 346 4768 
C 326 4768 301 4761 301 4729 
C 301 4717 307 4710 314 4697 
C 621 4378 1402 3568 1402 1584 
C 1402 -407 627 -1217 314 -1537 
C 307 -1549 301 -1556 301 -1568 
C 301 -1600 326 -1600 346 -1600 
C 416 -1600 960 -1128 1274 -426 
C 1594 281 1683 969 1683 1581 
z
" transform="scale(0.015625)"/>
      </defs>
      <use xlink:href="#CMR17-57" transform="scale(0.996264)"/>
      <use xlink:href="#CMR17-61" transform="translate(87.289395 0) scale(0.996264)"/>
      <use xlink:href="#CMR17-76" transform="translate(130.377418 0) scale(0.996264)"/>
      <use xlink:href="#CMR17-65" transform="translate(176.06788 0) scale(0.996264)"/>
      <use xlink:href="#CMR17-66" transform="translate(216.55354 0) scale(0.996264)"/>
      <use xlink:href="#CMR17-75" transform="translate(244.027052 0) scale(0.996264)"/>
      <use xlink:href="#CMR17-6e" transform="translate(294.922422 0) scale(0.996264)"/>
      <use xlink:href="#CMR17-63" transform="translate(345.817792 0) scale(0.996264)"/>
      <use xlink:href="#CMR17-74" transform="translate(386.303453 0) scale(0.996264)"/>
      <use xlink:href="#CMR17-69" transform="translate(421.58422 0) scale(0.996264)"/>
      <use xlink:href="#CMR17-6f" transform="translate(446.455279 0) scale(0.996264)"/>
      <use xlink:href="#CMR17-6e" transform="translate(492.145756 0) scale(0.996264)"/>
      <use xlink:href="#CMR17-61" transform="translate(573.117092 0) scale(0.996264)"/>
      <use xlink:href="#CMR17-6d" transform="translate(618.807569 0) scale(0.996264)"/>
      <use xlink:href="#CMR17-70" transform="translate(695.727159 0) scale(0.996264)"/>
      <use xlink:href="#CMR17-6c" transform="translate(746.622529 0) scale(0.996264)"/>
      <use xlink:href="#CMR17-69" transform="translate(771.493587 0) scale(0.996264)"/>
      <use xlink:href="#CMR17-74" transform="translate(796.364646 0) scale(0.996264)"/>
      <use xlink:href="#CMR17-75" transform="translate(831.645414 0) scale(0.996264)"/>
      <use xlink:href="#CMR17-64" transform="translate(882.540783 0) scale(0.996264)"/>
      <use xlink:href="#CMR17-65" transform="translate(933.436153 0) scale(0.996264)"/>
      <use xlink:href="#CMMI12-20" transform="translate(1003.99778 0) scale(0.996264)"/>
      <use xlink:href="#CMR17-28" transform="translate(1070.99126 0) scale(0.996264)"/>
      <use xlink:href="#CMMI12-78" transform="translate(1106.272027 0) scale(0.996264)"/>
      <use xlink:href="#CMR17-29" transform="translate(1161.706087 0) scale(0.996264)"/>
     </g>
    </g>
   </g>
   <g id="line2d_15">
    <path d="M 58.647265 218.87714 
L 174.631732 218.785186 
L 179.984862 218.546424 
L 183.553614 218.149413 
L 185.337991 217.818367 
L 187.122367 217.356514 
L 188.906744 216.721249 
L 190.69112 215.859855 
L 192.475497 214.708535 
L 194.259873 213.191881 
L 196.044249 211.223029 
L 197.828626 208.70472 
L 199.613002 205.531518 
L 201.397379 201.593373 
L 203.181755 196.780665 
L 204.966132 190.99073 
L 206.750508 184.135745 
L 208.534884 176.151664 
L 210.319261 167.007696 
L 212.103637 156.715667 
L 213.888014 145.338427 
L 215.67239 132.996402 
L 219.241143 106.206614 
L 224.594272 65.213961 
L 226.378649 52.819185 
L 228.163025 41.729823 
L 229.947402 32.327466 
L 231.731778 24.949626 
L 233.516154 19.869666 
L 235.300531 17.28 
L 237.084907 17.28 
L 238.869284 19.869666 
L 240.65366 24.949626 
L 242.438037 32.327466 
L 244.222413 41.729823 
L 246.006789 52.819185 
L 247.791166 65.213961 
L 251.359919 92.302958 
L 254.928672 119.871364 
L 258.497424 145.338427 
L 260.281801 156.715667 
L 262.066177 167.007696 
L 263.850554 176.151664 
L 265.63493 184.135745 
L 267.419307 190.99073 
L 269.203683 196.780665 
L 270.988059 201.593373 
L 272.772436 205.531518 
L 274.556812 208.70472 
L 276.341189 211.223029 
L 278.125565 213.191881 
L 279.909942 214.708535 
L 281.694318 215.859855 
L 283.478694 216.721249 
L 285.263071 217.356514 
L 287.047447 217.818367 
L 290.6162 218.383376 
L 294.184953 218.658477 
L 299.538082 218.818654 
L 312.028717 218.875425 
L 413.738174 218.87714 
L 413.738174 218.87714 
" clip-path="url(#p913ed2c773)" style="fill: none; stroke: #21918c; stroke-opacity: 0.3; stroke-width: 5; stroke-linecap: square"/>
   </g>
   <g id="line2d_16">
    <path d="M 58.647265 218.871168 
L 106.825428 218.875853 
L 174.631732 218.786934 
L 179.984862 218.543621 
L 183.553614 218.14638 
L 185.337991 217.81656 
L 187.122367 217.356496 
L 188.906744 216.723102 
L 190.69112 215.863146 
L 192.475497 214.712416 
L 194.259873 213.195312 
L 196.044249 211.225056 
L 197.828626 208.704736 
L 199.613002 205.52944 
L 201.397379 201.589682 
L 203.181755 196.77629 
L 204.966132 190.986812 
L 206.750508 184.133339 
L 208.534884 176.151454 
L 210.319261 167.009806 
L 212.103637 156.719612 
L 213.888014 145.343227 
L 215.67239 133.000828 
L 219.241143 106.207196 
L 224.594272 65.208902 
L 226.378649 52.814335 
L 228.163025 41.726425 
L 229.947402 32.3264 
L 231.731778 24.951181 
L 233.516154 19.873461 
L 235.300531 17.285081 
L 237.084907 17.285081 
L 238.869284 19.873461 
L 240.65366 24.951181 
L 242.438037 32.3264 
L 244.222413 41.726425 
L 246.006789 52.814335 
L 247.791166 65.208902 
L 251.359919 92.301028 
L 254.928672 119.874259 
L 258.497424 145.343227 
L 260.281801 156.719612 
L 262.066177 167.009806 
L 263.850554 176.151454 
L 265.63493 184.133339 
L 267.419307 190.986812 
L 269.203683 196.77629 
L 270.988059 201.589682 
L 272.772436 205.52944 
L 274.556812 208.704736 
L 276.341189 211.225056 
L 278.125565 213.195312 
L 279.909942 214.712416 
L 281.694318 215.863146 
L 283.478694 216.723102 
L 285.263071 217.356496 
L 287.047447 217.81656 
L 290.6162 218.379989 
L 294.184953 218.657 
L 299.538082 218.821393 
L 312.028717 218.872997 
L 413.738174 218.871168 
L 413.738174 218.871168 
" clip-path="url(#p913ed2c773)" style="fill: none; stroke: #414487; stroke-opacity: 0.5; stroke-width: 3; stroke-linecap: square"/>
   </g>
   <g id="line2d_17">
    <path d="M 58.647265 218.877176 
L 174.631732 218.785914 
L 179.984862 218.542572 
L 183.553614 218.145977 
L 185.337991 217.816502 
L 187.122367 217.356685 
L 188.906744 216.723383 
L 190.69112 215.863333 
L 192.475497 214.712329 
L 194.259873 213.194811 
L 196.044249 211.224057 
L 197.828626 208.703214 
L 199.613002 205.527411 
L 201.397379 201.58717 
L 203.181755 196.773295 
L 204.966132 190.98328 
L 206.750508 184.129145 
L 208.534884 176.146409 
L 210.319261 167.003683 
L 212.103637 156.712197 
L 213.888014 145.334374 
L 215.67239 132.990519 
L 219.241143 106.194623 
L 224.594272 65.197085 
L 226.378649 52.804199 
L 228.163025 41.718585 
L 229.947402 32.321294 
L 231.731778 24.949018 
L 233.516154 19.874203 
L 235.300531 17.288458 
L 237.084907 17.290641 
L 238.869284 19.880639 
L 240.65366 24.959379 
L 242.438037 32.335063 
L 244.222413 41.735095 
L 246.006789 52.822688 
L 247.791166 65.21675 
L 251.359919 92.307737 
L 254.928672 119.879954 
L 258.497424 145.347884 
L 260.281801 156.723634 
L 262.066177 167.01309 
L 263.850554 176.153914 
L 265.63493 184.134941 
L 267.419307 190.987596 
L 269.203683 196.776375 
L 270.988059 201.589254 
L 272.772436 205.528723 
L 274.556812 208.703951 
L 276.341189 211.224386 
L 278.125565 213.194867 
L 279.909942 214.712217 
L 281.694318 215.863128 
L 283.478694 216.723139 
L 285.263071 217.356435 
L 287.047447 217.816263 
L 290.6162 218.379037 
L 294.184953 218.655658 
L 299.538082 218.820628 
L 312.028717 218.873356 
L 413.738174 218.877511 
L 413.738174 218.877511 
" clip-path="url(#p913ed2c773)" style="fill: none; stroke: #000000; stroke-linecap: square"/>
   </g>
   <g id="patch_3">
    <path d="M 40.892719 228.96 
L 40.892719 7.2 
" style="fill: none; stroke: #000000; stroke-width: 0.8; stroke-linejoin: miter; stroke-linecap: square"/>
   </g>
   <g id="patch_4">
    <path d="M 431.492719 228.96 
L 431.492719 7.2 
" style="fill: none; stroke: #000000; stroke-width: 0.8; stroke-linejoin: miter; stroke-linecap: square"/>
   </g>
   <g id="patch_5">
    <path d="M 40.892719 228.96 
L 431.492719 228.96 
" style="fill: none; stroke: #000000; stroke-width: 0.8; stroke-linejoin: miter; stroke-linecap: square"/>
   </g>
   <g id="patch_6">
    <path d="M 40.892719 7.2 
L 431.492719 7.2 
" style="fill: none; stroke: #000000; stroke-width: 0.8; stroke-linejoin: miter; stroke-linecap: square"/>
   </g>
   <g id="legend_1">
    <g id="patch_7">
     <path d="M 310.494487 84.885892 
L 424.492719 84.885892 
Q 426.492719 84.885892 426.492719 82.885892 
L 426.492719 14.2 
Q 426.492719 12.2 424.492719 12.2 
L 310.494487 12.2 
Q 308.494487 12.2 308.494487 14.2 
L 308.494487 82.885892 
Q 308.494487 84.885892 310.494487 84.885892 
z
" style="fill: #ffffff; opacity: 0.8; stroke: #cccccc; stroke-linejoin: miter"/>
    </g>
    <g id="line2d_18">
     <path d="M 312.494487 19.7 
L 322.494487 19.7 
L 332.494487 19.7 
" style="fill: none; stroke: #21918c; stroke-opacity: 0.3; stroke-width: 5; stroke-linecap: square"/>
    </g>
    <g id="text_17">
     <!-- Analytical -->
     <g transform="translate(340.494487 23.2) scale(0.1 -0.1)">
      <defs>
       <path id="CMR17-41" d="M 2323 4378 
C 2291 4461 2278 4480 2214 4480 
C 2150 4480 2138 4461 2106 4378 
L 749 566 
C 627 223 371 153 147 153 
L 147 -13 
C 262 0 518 0 640 0 
C 800 0 1056 0 1210 -13 
L 1210 153 
C 909 153 864 361 864 439 
C 864 497 877 530 890 569 
L 1229 1536 
L 2906 1536 
L 3290 442 
C 3322 365 3322 352 3322 327 
C 3322 153 3046 153 2925 153 
L 2925 0 
C 3110 0 3443 0 3642 0 
C 3808 0 4128 0 4282 -13 
L 4282 153 
C 3942 153 3827 153 3744 387 
L 2323 4378 
z
M 2067 3893 
L 2848 1702 
L 1286 1702 
L 2067 3893 
z
" transform="scale(0.015625)"/>
       <path id="CMR17-79" d="M 2496 2197 
C 2656 2586 2944 2586 3034 2586 
L 3034 2752 
C 2912 2752 2752 2752 2630 2752 
C 2496 2752 2285 2752 2157 2758 
L 2157 2592 
C 2400 2573 2406 2394 2406 2343 
C 2406 2280 2394 2248 2362 2171 
L 1664 449 
L 902 2306 
C 870 2382 870 2426 870 2433 
C 870 2573 1018 2586 1171 2586 
L 1171 2758 
C 1018 2752 742 2752 582 2752 
C 410 2752 205 2752 64 2758 
L 64 2586 
C 410 2586 448 2554 531 2350 
L 1485 15 
C 1197 -738 1030 -1178 627 -1178 
C 557 -1178 397 -1159 282 -1044 
C 429 -1031 493 -942 493 -833 
C 493 -725 416 -629 288 -629 
C 147 -629 77 -725 77 -840 
C 77 -1095 339 -1280 627 -1280 
C 998 -1280 1229 -922 1357 -604 
L 2496 2197 
z
" transform="scale(0.015625)"/>
      </defs>
      <use xlink:href="#CMR17-41" transform="scale(0.996264)"/>
      <use xlink:href="#CMR17-6e" transform="translate(69.07243 0) scale(0.996264)"/>
      <use xlink:href="#CMR17-61" transform="translate(119.9678 0) scale(0.996264)"/>
      <use xlink:href="#CMR17-6c" transform="translate(165.658277 0) scale(0.996264)"/>
      <use xlink:href="#CMR17-79" transform="translate(190.529335 0) scale(0.996264)"/>
      <use xlink:href="#CMR17-74" transform="translate(238.822251 0) scale(0.996264)"/>
      <use xlink:href="#CMR17-69" transform="translate(274.103019 0) scale(0.996264)"/>
      <use xlink:href="#CMR17-63" transform="translate(298.974077 0) scale(0.996264)"/>
      <use xlink:href="#CMR17-61" transform="translate(339.459738 0) scale(0.996264)"/>
      <use xlink:href="#CMR17-6c" transform="translate(385.150215 0) scale(0.996264)"/>
     </g>
    </g>
    <g id="line2d_19">
     <path d="M 312.494487 33.637178 
L 322.494487 33.637178 
L 332.494487 33.637178 
" style="fill: none; stroke: #414487; stroke-opacity: 0.5; stroke-width: 3; stroke-linecap: square"/>
    </g>
    <g id="text_18">
     <!-- Exact coefficients -->
     <g transform="translate(340.494487 37.137178) scale(0.1 -0.1)">
      <defs>
       <path id="CMR17-45" d="M 3885 1615 
L 3770 1615 
C 3629 676 3546 166 2419 166 
L 1530 166 
C 1274 166 1261 197 1261 414 
L 1261 2176 
L 1862 2176 
C 2464 2176 2522 1960 2522 1430 
L 2637 1430 
L 2637 3081 
L 2522 3081 
C 2522 2557 2464 2342 1862 2342 
L 1261 2342 
L 1261 3913 
C 1261 4128 1274 4160 1530 4160 
L 2406 4160 
C 3398 4160 3514 3769 3603 2929 
L 3718 2929 
L 3565 4325 
L 326 4325 
L 326 4160 
C 768 4160 838 4160 838 3874 
L 838 451 
C 838 166 768 166 326 166 
L 326 0 
L 3654 0 
L 3885 1615 
z
" transform="scale(0.015625)"/>
       <path id="CMR17-78" d="M 1664 1477 
C 1856 1726 2074 2006 2253 2216 
C 2464 2458 2707 2560 2989 2560 
L 2989 2726 
C 2880 2726 2656 2726 2541 2726 
C 2368 2726 2170 2726 2022 2732 
L 2022 2566 
C 2112 2553 2163 2489 2163 2400 
C 2163 2285 2099 2215 2067 2171 
L 1594 1573 
L 1030 2306 
C 973 2376 973 2388 973 2420 
C 973 2497 1037 2560 1146 2560 
L 1146 2732 
C 992 2726 717 2726 557 2726 
C 384 2726 179 2726 38 2732 
L 38 2560 
C 384 2560 461 2534 614 2343 
L 1350 1395 
C 1363 1382 1395 1344 1395 1325 
C 1395 1299 838 619 768 530 
C 480 185 179 160 6 160 
L 6 0 
C 115 0 339 0 454 0 
C 582 0 864 0 979 -6 
L 979 160 
C 941 166 838 179 838 325 
C 838 440 890 510 947 586 
L 1478 1236 
L 2035 512 
C 2086 442 2163 346 2163 301 
C 2163 211 2086 160 1984 160 
L 1984 -6 
C 2138 0 2413 0 2573 0 
C 2746 0 2950 0 3091 -6 
L 3091 160 
C 2771 160 2675 172 2522 370 
L 1664 1477 
z
" transform="scale(0.015625)"/>
       <path id="CMR17-e" d="M 4154 2764 
C 4000 2764 3526 2764 3405 2739 
C 3366 2725 3354 2725 3277 2725 
L 2547 2725 
L 2547 3469 
C 2547 4073 3034 4352 3418 4352 
C 3539 4352 3814 4320 3955 4101 
C 3891 4101 3686 4101 3686 3878 
C 3686 3725 3789 3648 3917 3648 
C 4032 3648 4147 3712 4147 3885 
C 4147 4205 3840 4454 3443 4454 
C 3245 4454 2829 4410 2496 4095 
C 2413 4262 2202 4454 1837 4454 
C 1344 4454 634 4168 634 3469 
L 634 2725 
L 122 2725 
L 122 2560 
L 634 2560 
L 634 427 
C 634 184 608 153 198 153 
L 198 -13 
C 352 0 634 0 794 0 
C 960 0 1242 0 1395 -13 
L 1395 153 
C 986 153 960 178 960 427 
L 960 2560 
L 2234 2560 
L 2234 427 
C 2234 184 2208 153 1798 153 
L 1798 -13 
C 1952 0 2234 0 2394 0 
C 2560 0 2842 0 2995 -13 
L 2995 153 
C 2586 153 2560 178 2560 427 
L 2560 2560 
L 3501 2560 
C 3776 2560 3827 2502 3827 2222 
L 3827 427 
C 3827 184 3802 153 3392 153 
L 3392 -13 
C 3546 0 3827 0 3987 0 
C 4154 0 4435 0 4589 -13 
L 4589 153 
C 4179 153 4154 178 4154 427 
L 4154 2764 
z
M 947 2725 
L 947 3469 
C 947 4067 1421 4352 1818 4352 
C 2042 4352 2259 4256 2355 4101 
C 2291 4101 2080 4101 2080 3878 
C 2080 3762 2144 3686 2246 3654 
C 2234 3596 2234 3471 2234 3465 
L 2234 2725 
L 947 2725 
z
" transform="scale(0.015625)"/>
      </defs>
      <use xlink:href="#CMR17-45" transform="scale(0.996264)"/>
      <use xlink:href="#CMR17-78" transform="translate(62.586301 0) scale(0.996264)"/>
      <use xlink:href="#CMR17-61" transform="translate(110.879216 0) scale(0.996264)"/>
      <use xlink:href="#CMR17-63" transform="translate(156.569693 0) scale(0.996264)"/>
      <use xlink:href="#CMR17-74" transform="translate(197.055354 0) scale(0.996264)"/>
      <use xlink:href="#CMR17-63" transform="translate(262.412088 0) scale(0.996264)"/>
      <use xlink:href="#CMR17-6f" transform="translate(302.897749 0) scale(0.996264)"/>
      <use xlink:href="#CMR17-65" transform="translate(351.190664 0) scale(0.996264)"/>
      <use xlink:href="#CMR17-e" transform="translate(391.676325 0) scale(0.996264)"/>
      <use xlink:href="#CMR17-63" transform="translate(466.289607 0) scale(0.996264)"/>
      <use xlink:href="#CMR17-69" transform="translate(506.775267 0) scale(0.996264)"/>
      <use xlink:href="#CMR17-65" transform="translate(531.646326 0) scale(0.996264)"/>
      <use xlink:href="#CMR17-6e" transform="translate(572.131986 0) scale(0.996264)"/>
      <use xlink:href="#CMR17-74" transform="translate(620.424902 0) scale(0.996264)"/>
      <use xlink:href="#CMR17-73" transform="translate(655.70567 0) scale(0.996264)"/>
     </g>
    </g>
    <g id="line2d_20">
     <path d="M 312.494487 47.574357 
L 322.494487 47.574357 
L 332.494487 47.574357 
" style="fill: none; stroke: #000000; stroke-linecap: square"/>
    </g>
    <g id="text_19">
     <!-- Approximated -->
     <g transform="translate(340.494487 51.074357) scale(0.1 -0.1)">
      <defs>
       <path id="CMR17-72" d="M 960 1497 
C 960 2112 1222 2688 1702 2688 
C 1747 2688 1792 2682 1837 2662 
C 1837 2662 1696 2617 1696 2452 
C 1696 2298 1818 2234 1914 2234 
C 1990 2234 2131 2279 2131 2458 
C 2131 2663 1926 2790 1709 2790 
C 1222 2790 1011 2317 947 2093 
L 941 2093 
L 941 2790 
L 198 2720 
L 198 2554 
C 576 2554 634 2515 634 2208 
L 634 428 
C 634 184 608 153 198 153 
L 198 -13 
C 352 0 646 0 813 0 
C 998 0 1325 0 1498 -13 
L 1498 153 
C 1037 153 960 153 960 440 
L 960 1497 
z
" transform="scale(0.015625)"/>
      </defs>
      <use xlink:href="#CMR17-41" transform="scale(0.996264)"/>
      <use xlink:href="#CMR17-70" transform="translate(69.07243 0) scale(0.996264)"/>
      <use xlink:href="#CMR17-70" transform="translate(119.9678 0) scale(0.996264)"/>
      <use xlink:href="#CMR17-72" transform="translate(170.863169 0) scale(0.996264)"/>
      <use xlink:href="#CMR17-6f" transform="translate(206.143937 0) scale(0.996264)"/>
      <use xlink:href="#CMR17-78" transform="translate(249.23196 0) scale(0.996264)"/>
      <use xlink:href="#CMR17-69" transform="translate(297.524876 0) scale(0.996264)"/>
      <use xlink:href="#CMR17-6d" transform="translate(322.395935 0) scale(0.996264)"/>
      <use xlink:href="#CMR17-61" transform="translate(399.315525 0) scale(0.996264)"/>
      <use xlink:href="#CMR17-74" transform="translate(445.006002 0) scale(0.996264)"/>
      <use xlink:href="#CMR17-65" transform="translate(480.286769 0) scale(0.996264)"/>
      <use xlink:href="#CMR17-64" transform="translate(520.77243 0) scale(0.996264)"/>
     </g>
    </g>
    <g id="line2d_21">
     <path d="M 312.494487 61.511535 
L 322.494487 61.511535 
L 332.494487 61.511535 
" style="fill: none; stroke: #7ad151; stroke-width: 1.5; stroke-linecap: square"/>
    </g>
    <g id="text_20">
     <!-- Error: Exact coeff. -->
     <g transform="translate(340.494487 65.011535) scale(0.1 -0.1)">
      <defs>
       <path id="CMR17-3a" d="M 1062 2491 
C 1062 2650 934 2752 800 2752 
C 672 2752 538 2650 538 2491 
C 538 2332 666 2230 800 2230 
C 928 2230 1062 2332 1062 2491 
z
M 1062 261 
C 1062 420 934 522 800 522 
C 672 522 538 420 538 261 
C 538 102 666 0 800 0 
C 928 0 1062 102 1062 261 
z
" transform="scale(0.015625)"/>
       <path id="CMR17-b" d="M 2554 2560 
L 3283 2560 
L 3283 2725 
L 2541 2725 
L 2541 3494 
C 2541 4022 2810 4352 3085 4352 
C 3168 4352 3264 4327 3328 4282 
C 3277 4269 3142 4225 3142 4067 
C 3142 3901 3270 3850 3360 3850 
C 3450 3850 3578 3901 3578 4067 
C 3578 4308 3347 4454 3091 4454 
C 2842 4454 2637 4333 2477 4181 
C 2330 4390 2086 4454 1837 4454 
C 1338 4454 634 4168 634 3469 
L 634 2725 
L 122 2725 
L 122 2560 
L 634 2560 
L 634 427 
C 634 184 608 153 198 153 
L 198 -13 
C 352 0 634 0 794 0 
C 960 0 1242 0 1395 -13 
L 1395 153 
C 986 153 960 178 960 427 
L 960 2560 
L 2227 2560 
L 2227 427 
C 2227 184 2202 153 1792 153 
L 1792 -13 
C 1946 0 2240 0 2406 0 
C 2592 0 2918 0 3091 -13 
L 3091 153 
C 2630 153 2554 153 2554 439 
L 2554 2560 
z
M 947 2725 
L 947 3469 
C 947 4047 1395 4352 1824 4352 
C 1920 4352 2170 4332 2323 4187 
C 2208 4187 2099 4136 2099 3977 
C 2099 3812 2246 3767 2259 3767 
C 2227 3652 2227 3526 2227 3481 
L 2227 2725 
L 947 2725 
z
" transform="scale(0.015625)"/>
       <path id="CMR17-2e" d="M 1062 261 
C 1062 420 934 522 800 522 
C 672 522 538 420 538 261 
C 538 102 666 0 800 0 
C 928 0 1062 102 1062 261 
z
" transform="scale(0.015625)"/>
      </defs>
      <use xlink:href="#CMR17-45" transform="scale(0.996264)"/>
      <use xlink:href="#CMR17-72" transform="translate(62.586301 0) scale(0.996264)"/>
      <use xlink:href="#CMR17-72" transform="translate(97.867068 0) scale(0.996264)"/>
      <use xlink:href="#CMR17-6f" transform="translate(133.147836 0) scale(0.996264)"/>
      <use xlink:href="#CMR17-72" transform="translate(178.838313 0) scale(0.996264)"/>
      <use xlink:href="#CMR17-3a" transform="translate(214.119081 0) scale(0.996264)"/>
      <use xlink:href="#CMR17-45" transform="translate(279.4758 0) scale(0.996264)"/>
      <use xlink:href="#CMR17-78" transform="translate(342.0621 0) scale(0.996264)"/>
      <use xlink:href="#CMR17-61" transform="translate(390.355016 0) scale(0.996264)"/>
      <use xlink:href="#CMR17-63" transform="translate(436.045493 0) scale(0.996264)"/>
      <use xlink:href="#CMR17-74" transform="translate(476.531154 0) scale(0.996264)"/>
      <use xlink:href="#CMR17-63" transform="translate(541.887888 0) scale(0.996264)"/>
      <use xlink:href="#CMR17-6f" transform="translate(582.373549 0) scale(0.996264)"/>
      <use xlink:href="#CMR17-65" transform="translate(630.666464 0) scale(0.996264)"/>
      <use xlink:href="#CMR17-b" transform="translate(671.152125 0) scale(0.996264)"/>
      <use xlink:href="#CMR17-2e" transform="translate(723.496802 0) scale(0.996264)"/>
     </g>
    </g>
    <g id="line2d_22">
     <path d="M 312.494487 75.448713 
L 322.494487 75.448713 
L 332.494487 75.448713 
" style="fill: none; stroke: #bddf26; stroke-width: 1.5; stroke-linecap: square"/>
    </g>
    <g id="text_21">
     <!-- Error: Approx. -->
     <g transform="translate(340.494487 78.948713) scale(0.1 -0.1)">
      <use xlink:href="#CMR17-45" transform="scale(0.996264)"/>
      <use xlink:href="#CMR17-72" transform="translate(62.586301 0) scale(0.996264)"/>
      <use xlink:href="#CMR17-72" transform="translate(97.867068 0) scale(0.996264)"/>
      <use xlink:href="#CMR17-6f" transform="translate(133.147836 0) scale(0.996264)"/>
      <use xlink:href="#CMR17-72" transform="translate(178.838313 0) scale(0.996264)"/>
      <use xlink:href="#CMR17-3a" transform="translate(214.119081 0) scale(0.996264)"/>
      <use xlink:href="#CMR17-41" transform="translate(279.4758 0) scale(0.996264)"/>
      <use xlink:href="#CMR17-70" transform="translate(348.54823 0) scale(0.996264)"/>
      <use xlink:href="#CMR17-70" transform="translate(399.4436 0) scale(0.996264)"/>
      <use xlink:href="#CMR17-72" transform="translate(450.338969 0) scale(0.996264)"/>
      <use xlink:href="#CMR17-6f" transform="translate(485.619737 0) scale(0.996264)"/>
      <use xlink:href="#CMR17-78" transform="translate(528.70776 0) scale(0.996264)"/>
      <use xlink:href="#CMR17-2e" transform="translate(577.000676 0) scale(0.996264)"/>
     </g>
    </g>
   </g>
  </g>
  <g id="axes_2">
   <g id="matplotlib.axis_3">
    <g id="ytick_6">
     <g id="line2d_23">
      <defs>
       <path id="m73c934068f" d="M 0 0 
L 3.5 0 
" style="stroke: #000000; stroke-width: 0.8"/>
      </defs>
      <g>
       <use xlink:href="#m73c934068f" x="431.492719" y="222.03" style="stroke: #000000; stroke-width: 0.8"/>
      </g>
     </g>
     <g id="text_22">
      <!-- $\mathdefault{−15}$ -->
      <g transform="translate(438.492719 225.489249) scale(0.1 -0.1)">
       <defs>
        <path id="CMR17-31" d="M 1702 4058 
C 1702 4192 1696 4192 1606 4192 
C 1357 3916 979 3827 621 3827 
C 602 3827 570 3827 563 3808 
C 557 3795 557 3782 557 3648 
C 755 3648 1088 3686 1344 3839 
L 1344 461 
C 1344 236 1331 160 781 160 
L 589 160 
L 589 0 
C 896 0 1216 0 1523 0 
C 1830 0 2150 0 2458 0 
L 2458 160 
L 2266 160 
C 1715 160 1702 230 1702 458 
L 1702 4058 
z
" transform="scale(0.015625)"/>
        <path id="CMR17-35" d="M 730 3692 
C 794 3666 1056 3584 1325 3584 
C 1920 3584 2246 3911 2432 4100 
C 2432 4157 2432 4192 2394 4192 
C 2387 4192 2374 4192 2323 4163 
C 2099 4058 1837 3973 1517 3973 
C 1325 3973 1037 3999 723 4139 
C 653 4171 640 4171 634 4171 
C 602 4171 595 4164 595 4037 
L 595 2203 
C 595 2089 595 2057 659 2057 
C 691 2057 704 2070 736 2114 
C 941 2401 1222 2522 1542 2522 
C 1766 2522 2246 2382 2246 1289 
C 2246 1085 2246 715 2054 421 
C 1894 159 1645 25 1370 25 
C 947 25 518 320 403 814 
C 429 807 480 795 506 795 
C 589 795 749 840 749 1038 
C 749 1210 627 1280 506 1280 
C 358 1280 262 1190 262 1011 
C 262 454 704 -128 1382 -128 
C 2042 -128 2669 440 2669 1264 
C 2669 2030 2170 2624 1549 2624 
C 1222 2624 947 2503 730 2274 
L 730 3692 
z
" transform="scale(0.015625)"/>
       </defs>
       <use xlink:href="#CMSY10-0" transform="scale(0.996264)"/>
       <use xlink:href="#CMR17-31" transform="translate(77.487468 0) scale(0.996264)"/>
       <use xlink:href="#CMR17-35" transform="translate(123.177945 0) scale(0.996264)"/>
      </g>
     </g>
    </g>
    <g id="ytick_7">
     <g id="line2d_24">
      <g>
       <use xlink:href="#m73c934068f" x="431.492719" y="187.38" style="stroke: #000000; stroke-width: 0.8"/>
      </g>
     </g>
     <g id="text_23">
      <!-- $\mathdefault{−10}$ -->
      <g transform="translate(438.492719 190.839249) scale(0.1 -0.1)">
       <use xlink:href="#CMSY10-0" transform="scale(0.996264)"/>
       <use xlink:href="#CMR17-31" transform="translate(77.487468 0) scale(0.996264)"/>
       <use xlink:href="#CMR17-30" transform="translate(123.177945 0) scale(0.996264)"/>
      </g>
     </g>
    </g>
    <g id="ytick_8">
     <g id="line2d_25">
      <g>
       <use xlink:href="#m73c934068f" x="431.492719" y="152.73" style="stroke: #000000; stroke-width: 0.8"/>
      </g>
     </g>
     <g id="text_24">
      <!-- $\mathdefault{−5}$ -->
      <g transform="translate(438.492719 156.189249) scale(0.1 -0.1)">
       <use xlink:href="#CMSY10-0" transform="scale(0.996264)"/>
       <use xlink:href="#CMR17-35" transform="translate(77.487468 0) scale(0.996264)"/>
      </g>
     </g>
    </g>
    <g id="ytick_9">
     <g id="line2d_26">
      <g>
       <use xlink:href="#m73c934068f" x="431.492719" y="118.08" style="stroke: #000000; stroke-width: 0.8"/>
      </g>
     </g>
     <g id="text_25">
      <!-- $\mathdefault{0}$ -->
      <g transform="translate(438.492719 121.539249) scale(0.1 -0.1)">
       <use xlink:href="#CMR17-30" transform="scale(0.996264)"/>
      </g>
     </g>
    </g>
    <g id="ytick_10">
     <g id="line2d_27">
      <g>
       <use xlink:href="#m73c934068f" x="431.492719" y="83.43" style="stroke: #000000; stroke-width: 0.8"/>
      </g>
     </g>
     <g id="text_26">
      <!-- $\mathdefault{5}$ -->
      <g transform="translate(438.492719 86.889249) scale(0.1 -0.1)">
       <use xlink:href="#CMR17-35" transform="scale(0.996264)"/>
      </g>
     </g>
    </g>
    <g id="ytick_11">
     <g id="line2d_28">
      <g>
       <use xlink:href="#m73c934068f" x="431.492719" y="48.78" style="stroke: #000000; stroke-width: 0.8"/>
      </g>
     </g>
     <g id="text_27">
      <!-- $\mathdefault{10}$ -->
      <g transform="translate(438.492719 52.239249) scale(0.1 -0.1)">
       <use xlink:href="#CMR17-31" transform="scale(0.996264)"/>
       <use xlink:href="#CMR17-30" transform="translate(45.690477 0) scale(0.996264)"/>
      </g>
     </g>
    </g>
    <g id="ytick_12">
     <g id="line2d_29">
      <g>
       <use xlink:href="#m73c934068f" x="431.492719" y="14.13" style="stroke: #000000; stroke-width: 0.8"/>
      </g>
     </g>
     <g id="text_28">
      <!-- $\mathdefault{15}$ -->
      <g transform="translate(438.492719 17.589249) scale(0.1 -0.1)">
       <use xlink:href="#CMR17-31" transform="scale(0.996264)"/>
       <use xlink:href="#CMR17-35" transform="translate(45.690477 0) scale(0.996264)"/>
      </g>
     </g>
    </g>
    <g id="text_29">
     <!-- Approximation error ($10^{-5}$) -->
     <g transform="translate(468.313752 178.969865) rotate(-90) scale(0.1 -0.1)">
      <use xlink:href="#CMR17-41" transform="scale(0.996264)"/>
      <use xlink:href="#CMR17-70" transform="translate(69.07243 0) scale(0.996264)"/>
      <use xlink:href="#CMR17-70" transform="translate(119.9678 0) scale(0.996264)"/>
      <use xlink:href="#CMR17-72" transform="translate(170.863169 0) scale(0.996264)"/>
      <use xlink:href="#CMR17-6f" transform="translate(206.143937 0) scale(0.996264)"/>
      <use xlink:href="#CMR17-78" transform="translate(249.23196 0) scale(0.996264)"/>
      <use xlink:href="#CMR17-69" transform="translate(297.524876 0) scale(0.996264)"/>
      <use xlink:href="#CMR17-6d" transform="translate(322.395935 0) scale(0.996264)"/>
      <use xlink:href="#CMR17-61" transform="translate(399.315525 0) scale(0.996264)"/>
      <use xlink:href="#CMR17-74" transform="translate(445.006002 0) scale(0.996264)"/>
      <use xlink:href="#CMR17-69" transform="translate(480.286769 0) scale(0.996264)"/>
      <use xlink:href="#CMR17-6f" transform="translate(505.157828 0) scale(0.996264)"/>
      <use xlink:href="#CMR17-6e" transform="translate(550.848305 0) scale(0.996264)"/>
      <use xlink:href="#CMR17-65" transform="translate(631.819641 0) scale(0.996264)"/>
      <use xlink:href="#CMR17-72" transform="translate(672.305302 0) scale(0.996264)"/>
      <use xlink:href="#CMR17-72" transform="translate(707.586069 0) scale(0.996264)"/>
      <use xlink:href="#CMR17-6f" transform="translate(742.866837 0) scale(0.996264)"/>
      <use xlink:href="#CMR17-72" transform="translate(788.557314 0) scale(0.996264)"/>
      <use xlink:href="#CMR17-28" transform="translate(853.914049 0) scale(0.996264)"/>
      <use xlink:href="#CMR17-31" transform="translate(889.194816 0) scale(0.996264)"/>
      <use xlink:href="#CMR17-30" transform="translate(934.885293 0) scale(0.996264)"/>
      <use xlink:href="#CMSY10-0" transform="translate(980.575771 36.153639) scale(0.697382)"/>
      <use xlink:href="#CMR17-35" transform="translate(1034.816764 36.153639) scale(0.697382)"/>
      <use xlink:href="#CMR17-29" transform="translate(1067.298078 0) scale(0.996264)"/>
     </g>
    </g>
   </g>
   <g id="line2d_30">
    <path d="M 58.647265 99.773457 
L 60.431641 112.539523 
L 62.216017 122.832966 
L 64.000394 115.450241 
L 65.78477 115.853055 
L 67.569147 121.748655 
L 69.353523 119.764929 
L 71.1379 114.870369 
L 72.922276 115.293868 
L 74.706652 119.661535 
L 76.491029 121.820565 
L 78.275405 119.471198 
L 80.059782 115.658102 
L 81.844158 114.405836 
L 83.628535 116.692397 
L 85.412911 120.195492 
L 87.197287 121.861319 
L 88.981664 120.464461 
L 90.76604 117.244045 
L 92.550417 114.641644 
L 94.334793 114.446474 
L 96.11917 116.692504 
L 97.903546 119.846876 
L 99.687922 121.925609 
L 101.472299 121.715473 
L 103.256675 119.393593 
L 105.041052 116.303502 
L 106.825428 114.135161 
L 108.609805 114.016704 
L 110.394181 115.983987 
L 112.178557 119.037418 
L 113.962934 121.687752 
L 115.74731 122.682531 
L 117.531687 121.565876 
L 119.316063 118.841972 
L 121.100439 115.710066 
L 122.884816 113.521811 
L 124.669192 113.209046 
L 126.453569 114.916185 
L 130.022322 121.159527 
L 131.806698 123.240669 
L 133.591074 123.392142 
L 135.375451 121.525495 
L 138.944204 114.881672 
L 140.72858 112.498367 
L 142.512957 112.025482 
L 144.297333 113.673263 
L 146.081709 116.920812 
L 147.866086 120.695734 
L 149.650462 123.734589 
L 151.434839 125.001256 
L 153.219215 124.026571 
L 155.003592 121.062476 
L 158.572344 113.117944 
L 160.356721 110.634685 
L 162.141097 110.379944 
L 163.925474 112.508206 
L 165.70985 116.447874 
L 167.494227 121.062991 
L 169.278603 124.984468 
L 171.062979 127.013155 
L 172.847356 126.477049 
L 174.631732 123.438828 
L 176.416109 118.693198 
L 178.200485 113.553463 
L 179.984862 109.486401 
L 181.769238 107.697399 
L 183.553614 108.782128 
L 185.337991 112.543201 
L 188.906744 123.761402 
L 190.69112 128.167772 
L 192.475497 129.977464 
L 194.259873 128.598049 
L 196.044249 124.291978 
L 199.613002 111.711835 
L 201.397379 106.766101 
L 203.181755 104.667743 
L 204.966132 106.069042 
L 206.750508 110.704405 
L 210.319261 124.550363 
L 212.103637 130.173763 
L 213.888014 132.792984 
L 215.67239 131.649231 
L 217.456767 126.956391 
L 219.241143 119.862789 
L 221.025519 112.165476 
L 222.809896 105.849046 
L 224.594272 102.568544 
L 226.378649 103.212378 
L 228.163025 107.661498 
L 229.947402 114.810319 
L 231.731778 122.84619 
L 233.516154 129.715799 
L 235.300531 133.657052 
L 237.084907 133.657052 
L 238.869284 129.715799 
L 240.65366 122.84619 
L 242.438037 114.810319 
L 244.222413 107.661498 
L 246.006789 103.212378 
L 247.791166 102.568544 
L 249.575542 105.849046 
L 251.359919 112.165476 
L 253.144295 119.862789 
L 254.928672 126.956391 
L 256.713048 131.649231 
L 258.497424 132.792984 
L 260.281801 130.173763 
L 262.066177 124.550363 
L 265.63493 110.704405 
L 267.419307 106.069042 
L 269.203683 104.667743 
L 270.988059 106.766101 
L 272.772436 111.711835 
L 276.341189 124.291978 
L 278.125565 128.598049 
L 279.909942 129.977464 
L 281.694318 128.167772 
L 283.478694 123.761402 
L 287.047447 112.543201 
L 288.831824 108.782128 
L 290.6162 107.697399 
L 292.400577 109.486401 
L 294.184953 113.553463 
L 295.969329 118.693198 
L 297.753706 123.438828 
L 299.538082 126.477049 
L 301.322459 127.013155 
L 303.106835 124.984468 
L 304.891212 121.062991 
L 306.675588 116.447874 
L 308.459964 112.508206 
L 310.244341 110.379944 
L 312.028717 110.634685 
L 313.813094 113.117944 
L 317.381847 121.062476 
L 319.166223 124.026571 
L 320.950599 125.001256 
L 322.734976 123.734589 
L 324.519352 120.695734 
L 326.303729 116.920812 
L 328.088105 113.673263 
L 329.872482 112.025482 
L 331.656858 112.498367 
L 333.441234 114.881672 
L 337.009987 121.525495 
L 338.794364 123.392142 
L 340.57874 123.240669 
L 342.363117 121.159527 
L 345.931869 114.916185 
L 347.716246 113.209046 
L 349.500622 113.521811 
L 351.284999 115.710066 
L 353.069375 118.841972 
L 354.853752 121.565876 
L 356.638128 122.682531 
L 358.422504 121.687752 
L 360.206881 119.037418 
L 361.991257 115.983987 
L 363.775634 114.016704 
L 365.56001 114.135161 
L 367.344387 116.303502 
L 369.128763 119.393593 
L 370.913139 121.715473 
L 372.697516 121.925609 
L 374.481892 119.846876 
L 376.266269 116.692504 
L 378.050645 114.446474 
L 379.835021 114.641644 
L 381.619398 117.244045 
L 383.403774 120.464461 
L 385.188151 121.861319 
L 386.972527 120.195492 
L 388.756904 116.692397 
L 390.54128 114.405836 
L 392.325656 115.658102 
L 394.110033 119.471198 
L 395.894409 121.820565 
L 397.678786 119.661535 
L 399.463162 115.293868 
L 401.247539 114.870369 
L 403.031915 119.764929 
L 404.816291 121.748655 
L 406.600668 115.853055 
L 408.385044 115.450241 
L 410.169421 122.832966 
L 411.953797 112.539523 
L 413.738174 99.773457 
L 413.738174 99.773457 
" clip-path="url(#p913ed2c773)" style="fill: none; stroke: #7ad151; stroke-width: 1.5; stroke-linecap: square"/>
   </g>
   <g id="line2d_31">
    <path d="M 58.647265 118.190893 
L 60.431641 117.461408 
L 62.216017 119.67917 
L 64.000394 115.424244 
L 65.78477 119.291488 
L 67.569147 121.231794 
L 69.353523 117.440477 
L 71.1379 115.230846 
L 72.922276 117.756741 
L 74.706652 120.822587 
L 76.491029 120.289583 
L 78.275405 116.943829 
L 80.059782 114.564856 
L 81.844158 115.516799 
L 83.628535 118.769411 
L 85.412911 121.355208 
L 87.197287 121.12008 
L 88.981664 118.299602 
L 90.76604 115.03865 
L 92.550417 113.648804 
L 94.334793 115.032978 
L 97.903546 121.291665 
L 99.687922 122.35462 
L 101.472299 120.873872 
L 105.041052 114.603104 
L 106.825428 113.148173 
L 108.609805 114.056679 
L 110.394181 116.844223 
L 112.178557 120.150652 
L 113.962934 122.431945 
L 115.74731 122.676102 
L 117.531687 120.824592 
L 121.100439 114.819197 
L 122.884816 113.321599 
L 124.669192 113.906551 
L 126.453569 116.352922 
L 128.237945 119.67723 
L 130.022322 122.537263 
L 131.806698 123.757396 
L 133.591074 122.773607 
L 135.375451 119.839922 
L 137.159827 115.933628 
L 138.944204 112.406049 
L 140.72858 110.510444 
L 142.512957 110.972866 
L 144.297333 113.748593 
L 147.866086 122.551091 
L 149.650462 125.919675 
L 151.434839 127.134812 
L 153.219215 125.85778 
L 155.003592 122.518847 
L 156.787968 118.175671 
L 158.572344 114.180495 
L 160.356721 111.761327 
L 162.141097 111.645284 
L 163.925474 113.83672 
L 165.70985 117.614572 
L 167.494227 121.747796 
L 169.278603 124.863982 
L 171.062979 125.862539 
L 172.847356 124.25182 
L 174.631732 120.312063 
L 178.200485 109.861544 
L 179.984862 106.27136 
L 181.769238 105.368495 
L 183.553614 107.548914 
L 185.337991 112.362652 
L 188.906744 124.623122 
L 190.69112 128.739699 
L 192.475497 129.710511 
L 194.259873 127.061546 
L 196.044249 121.230292 
L 199.613002 105.488916 
L 201.397379 99.063223 
L 203.181755 95.486096 
L 204.966132 95.241397 
L 206.750508 97.847861 
L 208.534884 101.972076 
L 210.319261 105.780265 
L 212.103637 107.441661 
L 213.888014 105.653132 
L 215.67239 100.045117 
L 217.456767 91.356145 
L 219.241143 81.320936 
L 221.025519 72.290739 
L 222.809896 66.67519 
L 224.594272 66.343792 
L 226.378649 72.139017 
L 228.163025 83.627652 
L 229.947402 99.158318 
L 231.731778 116.216036 
L 233.516154 131.988958 
L 235.300531 144.007886 
L 237.084907 150.700095 
L 238.869284 151.720509 
L 240.65366 147.979985 
L 242.438037 141.367593 
L 244.222413 134.241331 
L 246.006789 128.819614 
L 247.791166 126.629185 
L 249.575542 128.148134 
L 251.359919 132.730242 
L 253.144295 138.823012 
L 254.928672 144.415865 
L 256.713048 147.596901 
L 258.497424 147.071085 
L 260.281801 142.50577 
L 262.066177 134.617107 
L 265.63493 115.616325 
L 267.419307 108.473287 
L 269.203683 104.928954 
L 270.988059 105.453603 
L 272.772436 109.511292 
L 276.341189 122.239645 
L 278.125565 127.234676 
L 279.909942 129.367242 
L 281.694318 128.11413 
L 283.478694 123.875887 
L 287.047447 111.632328 
L 288.831824 106.883463 
L 290.6162 104.779037 
L 292.400577 105.762561 
L 294.184953 109.438197 
L 297.753706 120.083599 
L 299.538082 124.131801 
L 301.322459 125.849745 
L 303.106835 124.944907 
L 304.891212 121.89455 
L 306.675588 117.786478 
L 308.459964 113.985855 
L 310.244341 111.725127 
L 312.028717 111.736619 
L 313.813094 114.035862 
L 315.59747 117.920562 
L 317.381847 122.187086 
L 319.166223 125.501306 
L 320.950599 126.812747 
L 322.734976 125.685209 
L 324.519352 122.439519 
L 328.088105 113.885749 
L 329.872482 111.188926 
L 331.656858 110.759365 
L 333.441234 112.646583 
L 335.225611 116.14114 
L 337.009987 120.012632 
L 338.794364 122.9312 
L 340.57874 123.932345 
L 342.363117 122.761702 
L 344.147493 119.969852 
L 345.931869 116.710625 
L 347.716246 114.304048 
L 349.500622 113.719439 
L 351.284999 115.177448 
L 354.853752 121.047698 
L 356.638128 122.848969 
L 358.422504 122.586783 
L 360.206881 120.317819 
L 361.991257 117.038548 
L 363.775634 114.271907 
L 365.56001 113.363004 
L 367.344387 114.796587 
L 370.913139 121.039582 
L 372.697516 122.558155 
L 374.481892 121.569968 
L 376.266269 118.612382 
L 378.050645 115.435425 
L 379.835021 114.020307 
L 381.619398 115.30569 
L 383.403774 118.432295 
L 385.188151 121.155554 
L 386.972527 121.378847 
L 388.756904 118.857464 
L 390.54128 115.676301 
L 392.325656 114.720839 
L 394.110033 116.997546 
L 395.894409 120.210456 
L 397.678786 120.687718 
L 399.463162 117.679527 
L 401.247539 115.237427 
L 403.031915 117.450969 
L 404.816291 121.203015 
L 406.600668 119.294438 
L 408.385044 115.448301 
L 410.169421 119.680573 
L 411.953797 117.942799 
L 413.738174 119.218063 
L 413.738174 119.218063 
" clip-path="url(#p913ed2c773)" style="fill: none; stroke: #bddf26; stroke-width: 1.5; stroke-linecap: square"/>
   </g>
   <g id="patch_8">
    <path d="M 40.892719 228.96 
L 40.892719 7.2 
" style="fill: none; stroke: #000000; stroke-width: 0.8; stroke-linejoin: miter; stroke-linecap: square"/>
   </g>
   <g id="patch_9">
    <path d="M 431.492719 228.96 
L 431.492719 7.2 
" style="fill: none; stroke: #000000; stroke-width: 0.8; stroke-linejoin: miter; stroke-linecap: square"/>
   </g>
   <g id="patch_10">
    <path d="M 40.892719 228.96 
L 431.492719 228.96 
" style="fill: none; stroke: #000000; stroke-width: 0.8; stroke-linejoin: miter; stroke-linecap: square"/>
   </g>
   <g id="patch_11">
    <path d="M 40.892719 7.2 
L 431.492719 7.2 
" style="fill: none; stroke: #000000; stroke-width: 0.8; stroke-linejoin: miter; stroke-linecap: square"/>
   </g>
  </g>
 </g>
 <defs>
  <clipPath id="p913ed2c773">
   <rect x="40.892719" y="7.2" width="390.6" height="221.76"/>
  </clipPath>
 </defs>
</svg>
